<mxfile host="app.diagrams.net" modified="2023-05-10T10:44:29.164Z" agent="Mozilla/5.0 (Macintosh; Intel Mac OS X 10_15_7) AppleWebKit/537.36 (KHTML, like Gecko) Chrome/113.0.0.0 Safari/537.36" etag="_oJsHlet87_HJSdT4B4o" version="21.2.9" type="device">
  <diagram name="Page-1" id="4tvV6hodPbvqZomzXliY">
    <mxGraphModel dx="641" dy="459" grid="1" gridSize="10" guides="1" tooltips="1" connect="1" arrows="1" fold="1" page="1" pageScale="1" pageWidth="2339" pageHeight="3300" math="0" shadow="0">
      <root>
        <mxCell id="0" />
        <mxCell id="1" parent="0" />
        <mxCell id="EEboGnjEhk4aHvEq6eqS-203" value="" style="endArrow=classic;html=1;rounded=0;" edge="1" parent="1">
          <mxGeometry width="50" height="50" relative="1" as="geometry">
            <mxPoint x="920" y="400" as="sourcePoint" />
            <mxPoint x="920" y="160" as="targetPoint" />
          </mxGeometry>
        </mxCell>
        <mxCell id="EEboGnjEhk4aHvEq6eqS-204" value="" style="endArrow=classic;html=1;rounded=0;" edge="1" parent="1">
          <mxGeometry width="50" height="50" relative="1" as="geometry">
            <mxPoint x="920" y="400" as="sourcePoint" />
            <mxPoint x="1240" y="400" as="targetPoint" />
          </mxGeometry>
        </mxCell>
        <mxCell id="EEboGnjEhk4aHvEq6eqS-206" value="" style="endArrow=none;html=1;rounded=0;strokeWidth=2;dashed=1;strokeColor=#FF8000;" edge="1" parent="1">
          <mxGeometry width="50" height="50" relative="1" as="geometry">
            <mxPoint x="1047" y="303" as="sourcePoint" />
            <mxPoint x="995" y="342" as="targetPoint" />
          </mxGeometry>
        </mxCell>
        <mxCell id="EEboGnjEhk4aHvEq6eqS-207" value="" style="ellipse;whiteSpace=wrap;html=1;aspect=fixed;fillColor=#FF8000;direction=south;rotation=-195;strokeColor=#FF8000;" vertex="1" parent="1">
          <mxGeometry x="1037" y="284" width="5" height="5" as="geometry" />
        </mxCell>
        <mxCell id="EEboGnjEhk4aHvEq6eqS-208" value="" style="ellipse;whiteSpace=wrap;html=1;aspect=fixed;fillColor=#FF8000;rotation=-195;strokeColor=#FF8000;" vertex="1" parent="1">
          <mxGeometry x="1030" y="296" width="5" height="5" as="geometry" />
        </mxCell>
        <mxCell id="EEboGnjEhk4aHvEq6eqS-209" value="" style="ellipse;whiteSpace=wrap;html=1;aspect=fixed;fillColor=#FF8000;rotation=-195;strokeColor=#FF8000;" vertex="1" parent="1">
          <mxGeometry x="1013" y="306" width="5" height="5" as="geometry" />
        </mxCell>
        <mxCell id="EEboGnjEhk4aHvEq6eqS-210" value="" style="ellipse;whiteSpace=wrap;html=1;aspect=fixed;fillColor=#FF8000;rotation=-195;strokeColor=#FF8000;" vertex="1" parent="1">
          <mxGeometry x="1023" y="331" width="5" height="5" as="geometry" />
        </mxCell>
        <mxCell id="EEboGnjEhk4aHvEq6eqS-211" value="" style="ellipse;whiteSpace=wrap;html=1;aspect=fixed;fillColor=#FF8000;rotation=-195;strokeColor=#FF8000;" vertex="1" parent="1">
          <mxGeometry x="1016" y="339" width="5" height="5" as="geometry" />
        </mxCell>
        <mxCell id="EEboGnjEhk4aHvEq6eqS-212" value="" style="ellipse;whiteSpace=wrap;html=1;aspect=fixed;fillColor=#FF8000;rotation=-195;strokeColor=#FF8000;" vertex="1" parent="1">
          <mxGeometry x="1005" y="323" width="5" height="5" as="geometry" />
        </mxCell>
        <mxCell id="EEboGnjEhk4aHvEq6eqS-213" value="" style="ellipse;whiteSpace=wrap;html=1;aspect=fixed;fillColor=#FF8000;rotation=-195;strokeColor=#FF8000;" vertex="1" parent="1">
          <mxGeometry x="1007" y="347" width="5" height="5" as="geometry" />
        </mxCell>
        <mxCell id="EEboGnjEhk4aHvEq6eqS-214" value="" style="ellipse;whiteSpace=wrap;html=1;aspect=fixed;fillColor=#FF8000;direction=south;rotation=-195;strokeColor=#FF8000;" vertex="1" parent="1">
          <mxGeometry x="1045" y="312" width="5" height="5" as="geometry" />
        </mxCell>
        <mxCell id="EEboGnjEhk4aHvEq6eqS-215" value="" style="ellipse;whiteSpace=wrap;html=1;aspect=fixed;fillColor=#FF8000;rotation=-195;strokeColor=#FF8000;" vertex="1" parent="1">
          <mxGeometry x="1037" y="323" width="5" height="5" as="geometry" />
        </mxCell>
        <mxCell id="EEboGnjEhk4aHvEq6eqS-193" value="" style="endArrow=none;html=1;rounded=0;strokeWidth=2;dashed=1;strokeColor=#0000FF;" edge="1" parent="1">
          <mxGeometry width="50" height="50" relative="1" as="geometry">
            <mxPoint x="1109" y="280" as="sourcePoint" />
            <mxPoint x="1173" y="293" as="targetPoint" />
          </mxGeometry>
        </mxCell>
        <mxCell id="EEboGnjEhk4aHvEq6eqS-194" value="" style="ellipse;whiteSpace=wrap;html=1;aspect=fixed;fillColor=#0000FF;direction=south;rotation=35;strokeColor=#0000FF;" vertex="1" parent="1">
          <mxGeometry x="1099" y="292" width="5" height="5" as="geometry" />
        </mxCell>
        <mxCell id="EEboGnjEhk4aHvEq6eqS-195" value="" style="ellipse;whiteSpace=wrap;html=1;aspect=fixed;fillColor=#0000FF;rotation=35;strokeColor=#0000FF;" vertex="1" parent="1">
          <mxGeometry x="1113" y="290" width="5" height="5" as="geometry" />
        </mxCell>
        <mxCell id="EEboGnjEhk4aHvEq6eqS-196" value="" style="ellipse;whiteSpace=wrap;html=1;aspect=fixed;fillColor=#0000FF;rotation=35;strokeColor=#0000FF;" vertex="1" parent="1">
          <mxGeometry x="1132" y="297" width="5" height="5" as="geometry" />
        </mxCell>
        <mxCell id="EEboGnjEhk4aHvEq6eqS-197" value="" style="ellipse;whiteSpace=wrap;html=1;aspect=fixed;fillColor=#0000FF;rotation=35;strokeColor=#0000FF;" vertex="1" parent="1">
          <mxGeometry x="1144" y="272" width="5" height="5" as="geometry" />
        </mxCell>
        <mxCell id="EEboGnjEhk4aHvEq6eqS-198" value="" style="ellipse;whiteSpace=wrap;html=1;aspect=fixed;fillColor=#0000FF;rotation=35;strokeColor=#0000FF;" vertex="1" parent="1">
          <mxGeometry x="1155" y="273" width="5" height="5" as="geometry" />
        </mxCell>
        <mxCell id="EEboGnjEhk4aHvEq6eqS-199" value="" style="ellipse;whiteSpace=wrap;html=1;aspect=fixed;fillColor=#0000FF;rotation=35;strokeColor=#0000FF;" vertex="1" parent="1">
          <mxGeometry x="1149" y="291" width="5" height="5" as="geometry" />
        </mxCell>
        <mxCell id="EEboGnjEhk4aHvEq6eqS-200" value="" style="ellipse;whiteSpace=wrap;html=1;aspect=fixed;fillColor=#0000FF;rotation=35;strokeColor=#0000FF;" vertex="1" parent="1">
          <mxGeometry x="1166" y="275" width="5" height="5" as="geometry" />
        </mxCell>
        <mxCell id="EEboGnjEhk4aHvEq6eqS-201" value="" style="ellipse;whiteSpace=wrap;html=1;aspect=fixed;fillColor=#0000FF;direction=south;rotation=35;strokeColor=#0000FF;" vertex="1" parent="1">
          <mxGeometry x="1115" y="269" width="5" height="5" as="geometry" />
        </mxCell>
        <mxCell id="EEboGnjEhk4aHvEq6eqS-202" value="" style="ellipse;whiteSpace=wrap;html=1;aspect=fixed;fillColor=#0000FF;rotation=35;strokeColor=#0000FF;" vertex="1" parent="1">
          <mxGeometry x="1129" y="267" width="5" height="5" as="geometry" />
        </mxCell>
        <mxCell id="EEboGnjEhk4aHvEq6eqS-228" value="" style="endArrow=none;html=1;rounded=0;strokeWidth=2;dashed=1;strokeColor=#FF0080;" edge="1" parent="1">
          <mxGeometry width="50" height="50" relative="1" as="geometry">
            <mxPoint x="1159" y="241" as="sourcePoint" />
            <mxPoint x="1223" y="231" as="targetPoint" />
          </mxGeometry>
        </mxCell>
        <mxCell id="EEboGnjEhk4aHvEq6eqS-229" value="" style="ellipse;whiteSpace=wrap;html=1;aspect=fixed;fillColor=#FF0080;direction=south;rotation=15;strokeColor=#FF0080;" vertex="1" parent="1">
          <mxGeometry x="1154" y="254" width="5" height="5" as="geometry" />
        </mxCell>
        <mxCell id="EEboGnjEhk4aHvEq6eqS-230" value="" style="ellipse;whiteSpace=wrap;html=1;aspect=fixed;fillColor=#FF0080;rotation=15;strokeColor=#FF0080;" vertex="1" parent="1">
          <mxGeometry x="1167" y="248" width="5" height="5" as="geometry" />
        </mxCell>
        <mxCell id="EEboGnjEhk4aHvEq6eqS-231" value="" style="ellipse;whiteSpace=wrap;html=1;aspect=fixed;fillColor=#FF0080;rotation=15;strokeColor=#FF0080;" vertex="1" parent="1">
          <mxGeometry x="1187" y="248" width="5" height="5" as="geometry" />
        </mxCell>
        <mxCell id="EEboGnjEhk4aHvEq6eqS-232" value="" style="ellipse;whiteSpace=wrap;html=1;aspect=fixed;fillColor=#FF0080;rotation=15;strokeColor=#FF0080;" vertex="1" parent="1">
          <mxGeometry x="1190" y="220" width="5" height="5" as="geometry" />
        </mxCell>
        <mxCell id="EEboGnjEhk4aHvEq6eqS-233" value="" style="ellipse;whiteSpace=wrap;html=1;aspect=fixed;fillColor=#FF0080;rotation=15;strokeColor=#FF0080;" vertex="1" parent="1">
          <mxGeometry x="1200" y="217" width="5" height="5" as="geometry" />
        </mxCell>
        <mxCell id="EEboGnjEhk4aHvEq6eqS-234" value="" style="ellipse;whiteSpace=wrap;html=1;aspect=fixed;fillColor=#FF0080;rotation=15;strokeColor=#FF0080;" vertex="1" parent="1">
          <mxGeometry x="1201" y="236" width="5" height="5" as="geometry" />
        </mxCell>
        <mxCell id="EEboGnjEhk4aHvEq6eqS-235" value="" style="ellipse;whiteSpace=wrap;html=1;aspect=fixed;fillColor=#FF0080;rotation=15;strokeColor=#FF0080;" vertex="1" parent="1">
          <mxGeometry x="1211" y="216" width="5" height="5" as="geometry" />
        </mxCell>
        <mxCell id="EEboGnjEhk4aHvEq6eqS-236" value="" style="ellipse;whiteSpace=wrap;html=1;aspect=fixed;fillColor=#FF0080;direction=south;rotation=15;strokeColor=#FF0080;" vertex="1" parent="1">
          <mxGeometry x="1161" y="227" width="5" height="5" as="geometry" />
        </mxCell>
        <mxCell id="EEboGnjEhk4aHvEq6eqS-237" value="" style="ellipse;whiteSpace=wrap;html=1;aspect=fixed;fillColor=#FF0080;rotation=15;strokeColor=#FF0080;" vertex="1" parent="1">
          <mxGeometry x="1174" y="221" width="5" height="5" as="geometry" />
        </mxCell>
        <mxCell id="EEboGnjEhk4aHvEq6eqS-217" value="" style="endArrow=none;html=1;rounded=0;strokeWidth=2;dashed=1;strokeColor=#009900;" edge="1" parent="1">
          <mxGeometry width="50" height="50" relative="1" as="geometry">
            <mxPoint x="1084" y="236" as="sourcePoint" />
            <mxPoint x="1135" y="196" as="targetPoint" />
          </mxGeometry>
        </mxCell>
        <mxCell id="EEboGnjEhk4aHvEq6eqS-218" value="" style="ellipse;whiteSpace=wrap;html=1;aspect=fixed;fillColor=#009900;direction=south;rotation=-15;container=0;strokeColor=#009900;" vertex="1" parent="1">
          <mxGeometry x="1088" y="249" width="5" height="5" as="geometry" />
        </mxCell>
        <mxCell id="EEboGnjEhk4aHvEq6eqS-219" value="" style="ellipse;whiteSpace=wrap;html=1;aspect=fixed;fillColor=#009900;rotation=-15;container=0;strokeColor=#009900;" vertex="1" parent="1">
          <mxGeometry x="1095" y="237" width="5" height="5" as="geometry" />
        </mxCell>
        <mxCell id="EEboGnjEhk4aHvEq6eqS-220" value="" style="ellipse;whiteSpace=wrap;html=1;aspect=fixed;fillColor=#009900;rotation=-15;container=0;strokeColor=#009900;" vertex="1" parent="1">
          <mxGeometry x="1113" y="227" width="5" height="5" as="geometry" />
        </mxCell>
        <mxCell id="EEboGnjEhk4aHvEq6eqS-221" value="" style="ellipse;whiteSpace=wrap;html=1;aspect=fixed;fillColor=#009900;rotation=-15;container=0;strokeColor=#009900;" vertex="1" parent="1">
          <mxGeometry x="1101" y="201" width="5" height="5" as="geometry" />
        </mxCell>
        <mxCell id="EEboGnjEhk4aHvEq6eqS-222" value="" style="ellipse;whiteSpace=wrap;html=1;aspect=fixed;fillColor=#009900;rotation=-15;container=0;strokeColor=#009900;" vertex="1" parent="1">
          <mxGeometry x="1109" y="194" width="5" height="5" as="geometry" />
        </mxCell>
        <mxCell id="EEboGnjEhk4aHvEq6eqS-223" value="" style="ellipse;whiteSpace=wrap;html=1;aspect=fixed;fillColor=#009900;rotation=-15;container=0;strokeColor=#009900;" vertex="1" parent="1">
          <mxGeometry x="1119" y="210" width="5" height="5" as="geometry" />
        </mxCell>
        <mxCell id="EEboGnjEhk4aHvEq6eqS-224" value="" style="ellipse;whiteSpace=wrap;html=1;aspect=fixed;fillColor=#009900;rotation=-15;container=0;strokeColor=#009900;" vertex="1" parent="1">
          <mxGeometry x="1118" y="187" width="5" height="5" as="geometry" />
        </mxCell>
        <mxCell id="EEboGnjEhk4aHvEq6eqS-225" value="" style="ellipse;whiteSpace=wrap;html=1;aspect=fixed;fillColor=#009900;direction=south;rotation=-15;container=0;strokeColor=#009900;" vertex="1" parent="1">
          <mxGeometry x="1080" y="222" width="5" height="5" as="geometry" />
        </mxCell>
        <mxCell id="EEboGnjEhk4aHvEq6eqS-226" value="" style="ellipse;whiteSpace=wrap;html=1;aspect=fixed;fillColor=#009900;rotation=-15;container=0;strokeColor=#009900;" vertex="1" parent="1">
          <mxGeometry x="1088" y="210" width="5" height="5" as="geometry" />
        </mxCell>
        <mxCell id="EEboGnjEhk4aHvEq6eqS-160" value="" style="endArrow=none;html=1;rounded=0;strokeWidth=2;dashed=1;strokeColor=#FF3333;" edge="1" parent="1">
          <mxGeometry width="50" height="50" relative="1" as="geometry">
            <mxPoint x="980" y="245.5" as="sourcePoint" />
            <mxPoint x="1040" y="220" as="targetPoint" />
          </mxGeometry>
        </mxCell>
        <mxCell id="EEboGnjEhk4aHvEq6eqS-180" value="" style="ellipse;whiteSpace=wrap;html=1;aspect=fixed;fillColor=#FF3333;direction=south;container=0;strokeColor=#FF3333;" vertex="1" parent="1">
          <mxGeometry x="980" y="260" width="5" height="5" as="geometry" />
        </mxCell>
        <mxCell id="EEboGnjEhk4aHvEq6eqS-182" value="" style="ellipse;whiteSpace=wrap;html=1;aspect=fixed;fillColor=#FF3333;container=0;strokeColor=#FF3333;" vertex="1" parent="1">
          <mxGeometry x="990" y="250" width="5" height="5" as="geometry" />
        </mxCell>
        <mxCell id="EEboGnjEhk4aHvEq6eqS-183" value="" style="ellipse;whiteSpace=wrap;html=1;aspect=fixed;fillColor=#FF3333;container=0;strokeColor=#FF3333;" vertex="1" parent="1">
          <mxGeometry x="1010" y="245" width="5" height="5" as="geometry" />
        </mxCell>
        <mxCell id="EEboGnjEhk4aHvEq6eqS-184" value="" style="ellipse;whiteSpace=wrap;html=1;aspect=fixed;fillColor=#FF3333;container=0;strokeColor=#FF3333;" vertex="1" parent="1">
          <mxGeometry x="1005" y="217" width="5" height="5" as="geometry" />
        </mxCell>
        <mxCell id="EEboGnjEhk4aHvEq6eqS-185" value="" style="ellipse;whiteSpace=wrap;html=1;aspect=fixed;fillColor=#FF3333;container=0;strokeColor=#FF3333;" vertex="1" parent="1">
          <mxGeometry x="1015" y="212" width="5" height="5" as="geometry" />
        </mxCell>
        <mxCell id="EEboGnjEhk4aHvEq6eqS-187" value="" style="ellipse;whiteSpace=wrap;html=1;aspect=fixed;fillColor=#FF3333;container=0;strokeColor=#FF3333;" vertex="1" parent="1">
          <mxGeometry x="1020" y="230" width="5" height="5" as="geometry" />
        </mxCell>
        <mxCell id="EEboGnjEhk4aHvEq6eqS-188" value="" style="ellipse;whiteSpace=wrap;html=1;aspect=fixed;fillColor=#FF3333;container=0;strokeColor=#FF3333;" vertex="1" parent="1">
          <mxGeometry x="1025" y="207" width="5" height="5" as="geometry" />
        </mxCell>
        <mxCell id="EEboGnjEhk4aHvEq6eqS-189" value="" style="ellipse;whiteSpace=wrap;html=1;aspect=fixed;fillColor=#FF3333;direction=south;container=0;strokeColor=#FF3333;" vertex="1" parent="1">
          <mxGeometry x="980" y="232" width="5" height="5" as="geometry" />
        </mxCell>
        <mxCell id="EEboGnjEhk4aHvEq6eqS-190" value="" style="ellipse;whiteSpace=wrap;html=1;aspect=fixed;fillColor=#FF3333;container=0;strokeColor=#FF3333;" vertex="1" parent="1">
          <mxGeometry x="990" y="222" width="5" height="5" as="geometry" />
        </mxCell>
        <mxCell id="EEboGnjEhk4aHvEq6eqS-238" value="" style="endArrow=none;html=1;rounded=0;strokeWidth=3;" edge="1" parent="1">
          <mxGeometry width="50" height="50" relative="1" as="geometry">
            <mxPoint x="1230" y="190" as="sourcePoint" />
            <mxPoint x="920" y="339" as="targetPoint" />
          </mxGeometry>
        </mxCell>
        <mxCell id="EEboGnjEhk4aHvEq6eqS-243" value="x" style="text;html=1;strokeColor=none;fillColor=none;align=center;verticalAlign=middle;whiteSpace=wrap;rounded=0;" vertex="1" parent="1">
          <mxGeometry x="1044" y="400" width="60" height="30" as="geometry" />
        </mxCell>
        <mxCell id="EEboGnjEhk4aHvEq6eqS-244" value="y" style="text;html=1;strokeColor=none;fillColor=none;align=center;verticalAlign=middle;whiteSpace=wrap;rounded=0;" vertex="1" parent="1">
          <mxGeometry x="890" y="254.5" width="30" height="30" as="geometry" />
        </mxCell>
      </root>
    </mxGraphModel>
  </diagram>
</mxfile>
